<?xml version="1.0" standalone="no"?>
<!DOCTYPE svg PUBLIC "-//W3C//DTD SVG 20010904//EN"
 "http://www.w3.org/TR/2001/REC-SVG-20010904/DTD/svg10.dtd">
<svg version="1.0" xmlns="http://www.w3.org/2000/svg"
 width="1000.000000pt" height="1000.000000pt" viewBox="0 0 1000.000000 1000.000000"
 preserveAspectRatio="xMidYMid meet">
<metadata>
Created by potrace 1.14, written by Peter Selinger 2001-2017
</metadata>
<g transform="translate(0.000000,1000.000000) scale(0.100000,-0.100000)"
fill="#000000" stroke="none">
<path d="M4750 9663 c-335 -30 -701 -128 -985 -263 -86 -41 -114 -49 -204 -59
-129 -15 -209 -40 -288 -88 -212 -129 -314 -354 -266 -587 21 -104 65 -189
143 -275 16 -18 30 -37 30 -42 0 -5 -20 -42 -45 -83 -45 -73 -49 -77 -143
-127 -291 -156 -543 -329 -797 -549 -105 -90 -381 -379 -478 -500 -305 -379
-551 -829 -702 -1285 -79 -238 -150 -551 -170 -746 -4 -30 -8 -61 -10 -69 -27
-102 -27 -790 0 -953 2 -12 9 -60 15 -107 28 -208 110 -545 184 -757 303 -857
871 -1586 1621 -2077 194 -128 354 -214 612 -332 359 -163 835 -284 1283 -324
162 -15 540 -15 700 0 1439 131 2672 971 3315 2260 223 447 372 975 412 1460
10 122 10 610 0 718 -6 75 -12 116 -33 267 -62 444 -250 983 -486 1394 -106
186 -312 486 -395 576 -10 11 -36 43 -58 70 -66 83 -328 344 -437 437 -206
174 -445 342 -634 447 l-80 45 -43 90 c-55 116 -58 138 -31 206 16 39 23 82
26 150 6 146 -23 232 -108 325 -61 66 -131 102 -217 108 -70 6 -76 11 -117 94
-58 120 -192 185 -331 159 l-43 -8 -76 77 c-90 89 -133 120 -242 175 -142 70
-315 127 -477 155 -82 15 -360 26 -445 18z"/>
</g>
</svg>
